<svg width="1170" height="228" viewBox="0 0 1170 228" fill="none" xmlns="http://www.w3.org/2000/svg">
<line opacity="0.5" x1="10" y1="-13" x2="9.99999" y2="242" stroke="#C2C4CF" stroke-width="2" stroke-linecap="round" stroke-dasharray="0.01 24"/>
<line opacity="0.5" x1="35" y1="-13" x2="35" y2="242" stroke="#C2C4CF" stroke-width="2" stroke-linecap="round" stroke-dasharray="0.01 24"/>
<line opacity="0.5" x1="60" y1="-13" x2="60" y2="242" stroke="#C2C4CF" stroke-width="2" stroke-linecap="round" stroke-dasharray="0.01 24"/>
<line opacity="0.5" x1="85.0001" y1="-13" x2="85.0001" y2="242" stroke="#C2C4CF" stroke-width="2" stroke-linecap="round" stroke-dasharray="0.01 24"/>
<line opacity="0.5" x1="110" y1="-13" x2="110" y2="242" stroke="#C2C4CF" stroke-width="2" stroke-linecap="round" stroke-dasharray="0.01 24"/>
<line opacity="0.5" x1="135" y1="-13" x2="135" y2="242" stroke="#C2C4CF" stroke-width="2" stroke-linecap="round" stroke-dasharray="0.01 24"/>
<line opacity="0.5" x1="160" y1="-13" x2="160" y2="242" stroke="#C2C4CF" stroke-width="2" stroke-linecap="round" stroke-dasharray="0.01 24"/>
<line opacity="0.5" x1="185" y1="-13" x2="185" y2="242" stroke="#C2C4CF" stroke-width="2" stroke-linecap="round" stroke-dasharray="0.01 24"/>
<line opacity="0.5" x1="210" y1="-13" x2="210" y2="242" stroke="#C2C4CF" stroke-width="2" stroke-linecap="round" stroke-dasharray="0.01 24"/>
<line opacity="0.5" x1="235" y1="-13" x2="235" y2="242" stroke="#C2C4CF" stroke-width="2" stroke-linecap="round" stroke-dasharray="0.01 24"/>
<line opacity="0.5" x1="260" y1="-13" x2="260" y2="242" stroke="#C2C4CF" stroke-width="2" stroke-linecap="round" stroke-dasharray="0.01 24"/>
<line opacity="0.5" x1="285" y1="-13" x2="285" y2="242" stroke="#C2C4CF" stroke-width="2" stroke-linecap="round" stroke-dasharray="0.01 24"/>
<line opacity="0.5" x1="310" y1="-13" x2="310" y2="242" stroke="#C2C4CF" stroke-width="2" stroke-linecap="round" stroke-dasharray="0.01 24"/>
<line opacity="0.5" x1="335" y1="-13" x2="335" y2="242" stroke="#C2C4CF" stroke-width="2" stroke-linecap="round" stroke-dasharray="0.01 24"/>
<line opacity="0.5" x1="360" y1="-13" x2="360" y2="242" stroke="#C2C4CF" stroke-width="2" stroke-linecap="round" stroke-dasharray="0.01 24"/>
<line opacity="0.5" x1="385" y1="-13" x2="385" y2="242" stroke="#C2C4CF" stroke-width="2" stroke-linecap="round" stroke-dasharray="0.01 24"/>
<line opacity="0.5" x1="410" y1="-13" x2="410" y2="242" stroke="#C2C4CF" stroke-width="2" stroke-linecap="round" stroke-dasharray="0.01 24"/>
<line opacity="0.5" x1="435" y1="-13" x2="435" y2="242" stroke="#C2C4CF" stroke-width="2" stroke-linecap="round" stroke-dasharray="0.01 24"/>
<line opacity="0.5" x1="460" y1="-13" x2="460" y2="242" stroke="#C2C4CF" stroke-width="2" stroke-linecap="round" stroke-dasharray="0.01 24"/>
<line opacity="0.5" x1="485" y1="-13" x2="485" y2="242" stroke="#C2C4CF" stroke-width="2" stroke-linecap="round" stroke-dasharray="0.01 24"/>
<line opacity="0.5" x1="510" y1="-13" x2="510" y2="242" stroke="#C2C4CF" stroke-width="2" stroke-linecap="round" stroke-dasharray="0.01 24"/>
<line opacity="0.5" x1="535" y1="-13" x2="535" y2="242" stroke="#C2C4CF" stroke-width="2" stroke-linecap="round" stroke-dasharray="0.01 24"/>
<line opacity="0.5" x1="560" y1="-13" x2="560" y2="242" stroke="#C2C4CF" stroke-width="2" stroke-linecap="round" stroke-dasharray="0.01 24"/>
<line opacity="0.5" x1="585" y1="-13" x2="585" y2="242" stroke="#C2C4CF" stroke-width="2" stroke-linecap="round" stroke-dasharray="0.01 24"/>
<line opacity="0.5" x1="610" y1="-13" x2="610" y2="242" stroke="#C2C4CF" stroke-width="2" stroke-linecap="round" stroke-dasharray="0.01 24"/>
<line opacity="0.5" x1="635" y1="-13" x2="635" y2="242" stroke="#C2C4CF" stroke-width="2" stroke-linecap="round" stroke-dasharray="0.01 24"/>
<line opacity="0.5" x1="660" y1="-13" x2="660" y2="242" stroke="#C2C4CF" stroke-width="2" stroke-linecap="round" stroke-dasharray="0.01 24"/>
<line opacity="0.5" x1="685" y1="-13" x2="685" y2="242" stroke="#C2C4CF" stroke-width="2" stroke-linecap="round" stroke-dasharray="0.01 24"/>
<line opacity="0.5" x1="710" y1="-13" x2="710" y2="242" stroke="#C2C4CF" stroke-width="2" stroke-linecap="round" stroke-dasharray="0.01 24"/>
<line opacity="0.5" x1="735" y1="-13" x2="735" y2="242" stroke="#C2C4CF" stroke-width="2" stroke-linecap="round" stroke-dasharray="0.01 24"/>
<line opacity="0.5" x1="760" y1="-13" x2="760" y2="242" stroke="#C2C4CF" stroke-width="2" stroke-linecap="round" stroke-dasharray="0.01 24"/>
<line opacity="0.5" x1="785" y1="-13" x2="785" y2="242" stroke="#C2C4CF" stroke-width="2" stroke-linecap="round" stroke-dasharray="0.01 24"/>
<line opacity="0.5" x1="810" y1="-13" x2="810" y2="242" stroke="#C2C4CF" stroke-width="2" stroke-linecap="round" stroke-dasharray="0.01 24"/>
<line opacity="0.5" x1="835" y1="-13" x2="835" y2="242" stroke="#C2C4CF" stroke-width="2" stroke-linecap="round" stroke-dasharray="0.01 24"/>
<line opacity="0.5" x1="860" y1="-13" x2="860" y2="242" stroke="#C2C4CF" stroke-width="2" stroke-linecap="round" stroke-dasharray="0.01 24"/>
<line opacity="0.5" x1="885" y1="-13" x2="885" y2="242" stroke="#C2C4CF" stroke-width="2" stroke-linecap="round" stroke-dasharray="0.01 24"/>
<line opacity="0.5" x1="910" y1="-13" x2="910" y2="242" stroke="#C2C4CF" stroke-width="2" stroke-linecap="round" stroke-dasharray="0.01 24"/>
<line opacity="0.5" x1="935" y1="-13" x2="935" y2="242" stroke="#C2C4CF" stroke-width="2" stroke-linecap="round" stroke-dasharray="0.01 24"/>
<line opacity="0.5" x1="960" y1="-13" x2="960" y2="242" stroke="#C2C4CF" stroke-width="2" stroke-linecap="round" stroke-dasharray="0.01 24"/>
<line opacity="0.5" x1="985" y1="-13" x2="985" y2="242" stroke="#C2C4CF" stroke-width="2" stroke-linecap="round" stroke-dasharray="0.01 24"/>
<line opacity="0.5" x1="1010" y1="-13" x2="1010" y2="242" stroke="#C2C4CF" stroke-width="2" stroke-linecap="round" stroke-dasharray="0.01 24"/>
<line opacity="0.5" x1="1035" y1="-13" x2="1035" y2="242" stroke="#C2C4CF" stroke-width="2" stroke-linecap="round" stroke-dasharray="0.01 24"/>
<line opacity="0.5" x1="1060" y1="-13" x2="1060" y2="242" stroke="#C2C4CF" stroke-width="2" stroke-linecap="round" stroke-dasharray="0.01 24"/>
<line opacity="0.5" x1="1085" y1="-13" x2="1085" y2="242" stroke="#C2C4CF" stroke-width="2" stroke-linecap="round" stroke-dasharray="0.01 24"/>
<line opacity="0.5" x1="1110" y1="-13" x2="1110" y2="242" stroke="#C2C4CF" stroke-width="2" stroke-linecap="round" stroke-dasharray="0.01 24"/>
<line opacity="0.5" x1="1135" y1="-13" x2="1135" y2="242" stroke="#C2C4CF" stroke-width="2" stroke-linecap="round" stroke-dasharray="0.01 24"/>
<line opacity="0.5" x1="1160" y1="-13" x2="1160" y2="242" stroke="#C2C4CF" stroke-width="2" stroke-linecap="round" stroke-dasharray="0.01 24"/>
</svg>
