<svg width="46" height="46" viewBox="0 0 46 46" fill="none" xmlns="http://www.w3.org/2000/svg">
<path d="M23.2711 1.00238C10.9277 0.82192 0.82192 10.9277 1.00238 23.3072C1.18284 35.1815 10.8194 44.818 22.6936 44.9985C35.0732 45.1789 45.1428 35.0732 44.9985 22.6936C44.818 10.8194 35.1454 1.14675 23.2711 1.00238Z" stroke="#00C353" stroke-width="2" stroke-miterlimit="10"/>
<path d="M21.5033 21.3581L26.9531 15.1142C27.2419 14.7893 27.675 14.5728 28.1081 14.5367C28.5412 14.5006 29.0104 14.645 29.3352 14.9337C29.66 15.2224 29.8766 15.6556 29.9127 16.0887C29.9488 16.5218 29.8044 16.991 29.5157 17.3158L24.0658 23.5597C23.9214 23.7401 23.741 23.8484 23.5605 23.9567C23.3439 24.065 23.1274 24.1011 22.9108 24.1372C22.6943 24.1372 22.4777 24.1372 22.2612 24.065C22.0446 23.9928 21.8642 23.8845 21.6837 23.7401C21.5033 23.5958 21.395 23.4153 21.2867 23.2349C21.1784 23.0544 21.1423 22.8018 21.1062 22.5852C21.1062 22.3687 21.1062 22.1521 21.1784 21.9355C21.2506 21.719 21.3589 21.5024 21.5033 21.3581Z" fill="#00C353"/>
<path d="M17.3886 30.9587C17.0638 31.2836 16.6307 31.464 16.1976 31.464C15.7645 31.464 15.3314 31.2836 15.0065 30.9587L9.95367 25.8698C9.8093 25.7254 9.66493 25.5089 9.59275 25.3284C9.52056 25.1479 9.44838 24.8953 9.44838 24.6787C9.44838 24.4622 9.48447 24.2456 9.59275 24.0291C9.66493 23.8125 9.8093 23.6321 9.95367 23.4877C10.098 23.3433 10.3146 23.199 10.495 23.1268C10.7116 23.0546 10.9281 22.9824 11.1447 22.9824C11.3613 22.9824 11.5778 23.0185 11.7944 23.1268C12.0109 23.199 12.1914 23.3433 12.3357 23.4877L17.4247 28.5767C17.7495 28.9015 17.93 29.3346 17.93 29.7677C17.8939 30.2008 17.7134 30.6339 17.3886 30.9587Z" fill="#00C353"/>
<path d="M36.0837 17.3158L24.2816 30.8503C24.1373 31.0307 23.9568 31.1751 23.7402 31.2834C23.5237 31.3916 23.3071 31.4277 23.0545 31.4638H22.9823C22.7658 31.4638 22.5492 31.4277 22.3327 31.3195C22.1161 31.2473 21.9357 31.1029 21.7913 30.9585L16.7384 25.8696C16.4136 25.5447 16.2331 25.1116 16.2331 24.6785C16.2331 24.2454 16.4136 23.8123 16.7384 23.4875C17.0632 23.1627 17.4963 22.9822 17.9294 22.9822C18.3625 22.9822 18.7957 23.1627 19.1205 23.4875L22.2605 26.6275C22.3327 26.6997 22.4409 26.7719 22.5492 26.808C22.6575 26.8441 22.7658 26.8801 22.874 26.8801C22.9823 26.8801 23.0906 26.8441 23.1989 26.808C23.3071 26.7719 23.3793 26.6997 23.4876 26.5914L33.5212 15.1142C33.8099 14.7893 34.243 14.5728 34.6761 14.5367C35.1092 14.5006 35.5784 14.645 35.9032 14.9337C36.2281 15.2224 36.4446 15.6556 36.4807 16.0887C36.5529 16.5579 36.4085 16.991 36.0837 17.3158Z" fill="#00C353"/>
</svg>
