<svg width="46" height="46" viewBox="0 0 46 46" fill="none" xmlns="http://www.w3.org/2000/svg">
<path d="M23.2836 1.00234C11.1481 0.82492 1.21262 10.7604 1.39004 22.9314C1.56745 34.6056 11.0416 44.0798 22.7158 44.2572C34.8868 44.4346 44.7868 34.4991 44.6449 22.3281C44.4675 10.654 34.9578 1.14428 23.2836 1.00234Z" stroke="#DC2425" stroke-width="2" stroke-miterlimit="10"/>
<path d="M25.3947 29.753C25.3947 30.4 25.1376 31.0205 24.6801 31.478C24.2226 31.9355 23.6021 32.1925 22.9551 32.1925C22.3081 32.1925 21.6876 31.9355 21.2301 31.478C20.7726 31.0205 20.5156 30.4 20.5156 29.753C20.5156 29.106 20.7726 28.4855 21.2301 28.028C21.6876 27.5705 22.3081 27.3135 22.9551 27.3135C23.6021 27.3135 24.2226 27.5705 24.6801 28.028C25.1376 28.4855 25.3947 29.106 25.3947 29.753Z" fill="#DC2425"/>
<path d="M22.9551 24.8743C22.3081 24.8743 21.6876 24.6173 21.2301 24.1598C20.7726 23.7023 20.5156 23.0818 20.5156 22.4348V15.1163C20.5156 14.4693 20.7726 13.8488 21.2301 13.3913C21.6876 12.9338 22.3081 12.6768 22.9551 12.6768C23.6021 12.6768 24.2226 12.9338 24.6801 13.3913C25.1376 13.8488 25.3947 14.4693 25.3947 15.1163V22.4348C25.3947 23.0818 25.1376 23.7023 24.6801 24.1598C24.2226 24.6173 23.6021 24.8743 22.9551 24.8743Z" fill="#DC2425"/>
</svg>
