<svg id="Main" xmlns="http://www.w3.org/2000/svg" viewBox="0 0 24 24"><defs><style>.cls-1{fill:none;}.cls-2{fill:#fff;}</style></defs><g id="wrapper"><rect class="cls-1" width="24" height="24"/></g><path class="cls-2" d="M21,17l-.15.44L15.42,12l5.44-5.39L21,7Z"/><path class="cls-2" d="M20.09,5.83l-.78.77q-3.42,3.4-6.82,6.83a.62.62,0,0,1-1,0L4.05,6,3.91,5.8l.57-.12a.74.74,0,0,1,.21,0H19.31A1.71,1.71,0,0,1,20.09,5.83Z"/><path class="cls-2" d="M3.94,18.16l5.44-5.38.24.25,1.14,1.14a1.67,1.67,0,0,0,2.49,0l1.38-1.38,5.46,5.41-.57.12a.89.89,0,0,1-.23,0H4.71A6.31,6.31,0,0,1,4,18.23Z"/><path class="cls-2" d="M3.12,17.41A3.57,3.57,0,0,1,3,16.77Q3,12,3,7.23a3.43,3.43,0,0,1,.11-.64L8.58,12Z"/></svg>