<svg id="Main" xmlns="http://www.w3.org/2000/svg" viewBox="0 0 24 24"><defs><style>.cls-1{fill:none;}.cls-2{fill:#fff;}</style></defs><g id="wrapper"><rect class="cls-1" width="24" height="24"/></g><g id="status-update"><path class="cls-2" d="M19.77,10.57A1.21,1.21,0,0,0,20.93,9a9.15,9.15,0,0,0-5.86-5.87,1.16,1.16,0,0,0-1.34.35,1.2,1.2,0,0,0-.18,1.33,1.32,1.32,0,0,0,.86.7,6.65,6.65,0,0,1,3.42,2.67,7.74,7.74,0,0,1,.79,1.64A1.2,1.2,0,0,0,19.77,10.57Z"/><path class="cls-2" d="M3,11.37c0-.29.06-.58.1-.87a8.94,8.94,0,0,1,1-3A9.11,9.11,0,0,1,7.36,4,7.56,7.56,0,0,1,9.53,3a1.17,1.17,0,0,1,1.28.59A1.25,1.25,0,0,1,10.69,5a1.36,1.36,0,0,1-.68.45A6.75,6.75,0,0,0,7.19,7.32,6.47,6.47,0,0,0,5.53,11,6.52,6.52,0,0,0,7,16.06a6.45,6.45,0,0,0,4.29,2.4,6.7,6.7,0,0,0,7.12-4.08c.08-.18.14-.37.21-.56a1.2,1.2,0,0,1,1.5-.72,1.21,1.21,0,0,1,.81,1.54,8.93,8.93,0,0,1-1.35,2.62,9,9,0,0,1-3,2.62,8.94,8.94,0,0,1-3.29,1.05l-.65.07h-1l-.36,0a9,9,0,0,1-4.16-1.49,9.12,9.12,0,0,1-4-6.1c-.06-.33-.09-.68-.14-1Z"/><path class="cls-2" d="M19.77,10.57a1.2,1.2,0,0,1-1.15-.8,7.74,7.74,0,0,0-.79-1.64,6.65,6.65,0,0,0-3.42-2.67,1.32,1.32,0,0,1-.86-.7,1.2,1.2,0,0,1,.18-1.33,1.16,1.16,0,0,1,1.34-.35A9.15,9.15,0,0,1,20.93,9,1.21,1.21,0,0,1,19.77,10.57Z"/></g></svg>