<svg id="Main" xmlns="http://www.w3.org/2000/svg" viewBox="0 0 24 24"><defs><style>.cls-1{fill:none;}.cls-2{fill:#fff;}</style></defs><g id="wrapper"><rect class="cls-1" width="24" height="24"/></g><g id="excel"><path class="cls-2" d="M13.22,3.5h.07s0,.11,0,.16V20.32c0,.06,0,.12,0,.18L3.5,18.62V5.39l1.26-.25,7.17-1.38ZM5.52,8.7l.1.18,1.74,3a.21.21,0,0,1,0,.26c-.65,1-1.28,2-1.92,3l-.1.17H7s.1-.06.13-.1c.16-.28.31-.57.46-.85l.81-1.57a3.54,3.54,0,0,0,.15.41c.35.67.7,1.34,1.06,2a.25.25,0,0,0,.18.1h1.64l-.1-.18-1.86-3a.21.21,0,0,1,0-.26c.61-1,1.21-2,1.81-3a1.81,1.81,0,0,1,.1-.17H9.83a.18.18,0,0,0-.13.09,20.32,20.32,0,0,0-1.19,2.38s0,0,0,.05l0,0L7.38,8.82a.27.27,0,0,0-.14-.12Z"/><path class="cls-2" d="M20.5,18.11a.71.71,0,0,1-.75.44H14V16.59h1.94V15.28H14V14h1.94V12.66H14V11.35h1.94v-1.3H14V8.74h2V7.42H14v-2h5.78a.71.71,0,0,1,.75.44ZM19.19,7.43h-2.6V8.71h2.6Zm0,7.86h-2.6v1.28h2.6Zm0-3.95V10.05H16.59v1.29ZM16.58,14h2.6V12.67h-2.6Z"/></g></svg>