<svg id="Main" xmlns="http://www.w3.org/2000/svg" viewBox="0 0 24 24"><defs><style>.cls-1{fill:none;}.cls-2{fill:#fff;}</style></defs><g id="wrapper"><rect class="cls-1" width="24" height="24"/></g><g id="form-download"><path class="cls-2" d="M12,21h6.53a.7.7,0,0,0,.66-.69c0-.35,0-.69,0-1a.62.62,0,0,0-.38-.58,1.17,1.17,0,0,0-.46-.08H5.51a.71.71,0,0,0-.7.72c0,.27,0,.55,0,.82a.78.78,0,0,0,.85.86C7.77,21,9.89,21,12,21Z"/><path class="cls-2" d="M12.63,3a.85.85,0,0,1,.58.91c0,3,0,6,0,9v.25l.16-.15,2.27-2.27a.75.75,0,0,1,1.21,0l.55.55a.71.71,0,0,1,0,1.08l-4.84,4.84a.7.7,0,0,1-1.08,0L6.62,12.43a.72.72,0,0,1,0-1.09l.58-.59a.74.74,0,0,1,1.14,0l2.3,2.3.12.15.05,0V13c0-3,0-6,0-9A.86.86,0,0,1,11.37,3Z"/><path class="cls-2" d="M12,21c-2.11,0-4.23,0-6.35,0a.78.78,0,0,1-.85-.86c0-.27,0-.55,0-.82a.71.71,0,0,1,.7-.72H18.35a1.17,1.17,0,0,1,.46.08.62.62,0,0,1,.38.58c0,.35,0,.69,0,1a.7.7,0,0,1-.66.69H12Z"/></g></svg>