<svg id="Main" xmlns="http://www.w3.org/2000/svg" viewBox="0 0 24 24"><defs><style>.cls-1{fill:none;}.cls-2{fill:#fff;}</style></defs><g id="wrapper"><rect class="cls-1" width="24" height="24"/></g><g id="notify"><path class="cls-2" d="M9.34,21h5.32V19.28H9.34Z"/><path class="cls-2" d="M4,18.11V16.38H5.78v-.24c0-2.29,0-4.58,0-6.86a6,6,0,0,1,3.4-5.59A6.19,6.19,0,0,1,18.07,7.9a7.63,7.63,0,0,1,.15,1.43c0,2.27,0,4.54,0,6.81v.24H20v1.73Zm12.49-1.75V9.29c0-.23,0-.45-.05-.67a4.47,4.47,0,0,0-8.9.63c0,2.31,0,4.62,0,6.94,0,0,0,.11,0,.17Z"/><path class="cls-2" d="M9.34,21V19.28h5.32V21Z"/></g></svg>