<svg width="20" height="20" viewBox="0 0 20 20" fill="none" xmlns="http://www.w3.org/2000/svg">
<path d="M16.6666 2.49967H15.8333V1.66634C15.8333 1.20801 15.4583 0.833008 15 0.833008C14.5416 0.833008 14.1666 1.20801 14.1666 1.66634V2.49967H5.83329V1.66634C5.83329 1.20801 5.45829 0.833008 4.99996 0.833008C4.54163 0.833008 4.16663 1.20801 4.16663 1.66634V2.49967H3.33329C2.41663 2.49967 1.66663 3.24967 1.66663 4.16634V17.4997C1.66663 18.4163 2.41663 19.1663 3.33329 19.1663H16.6666C17.5833 19.1663 18.3333 18.4163 18.3333 17.4997V4.16634C18.3333 3.24967 17.5833 2.49967 16.6666 2.49967ZM15.8333 17.4997H4.16663C3.70829 17.4997 3.33329 17.1247 3.33329 16.6663V6.66634H16.6666V16.6663C16.6666 17.1247 16.2916 17.4997 15.8333 17.4997Z" fill="#AEAEAE"/>
</svg>
