<svg id="Main" xmlns="http://www.w3.org/2000/svg" viewBox="0 0 24 24"><defs><style>.cls-1{fill:none;}.cls-2{fill:#fff;}</style></defs><g id="wrapper"><rect class="cls-1" width="24" height="24"/></g><g id="clear-filters"><path class="cls-2" d="M13.71,13.27,9.35,15.39v3.86a.77.77,0,0,0,.21.6.7.7,0,0,0,.79.12l2.81-1.08a.66.66,0,0,0,.52-.75V13.49A.78.78,0,0,1,13.71,13.27Z"/><path class="cls-2" d="M8.33,11.42l9.75-4.76c.37-.52.74-1,1.1-1.55a.66.66,0,0,0,0-.89A1.91,1.91,0,0,0,18.79,4H4.22a2.78,2.78,0,0,0-.38.25.69.69,0,0,0,0,.91Z"/><rect class="cls-2" x="2.1" y="10.86" width="19.8" height="2.02" rx="1.01" transform="translate(-3.99 6.47) rotate(-26.01)"/></g></svg>