<svg id="Слой_1" data-name="Слой 1" xmlns="http://www.w3.org/2000/svg" xmlns:xlink="http://www.w3.org/1999/xlink" viewBox="0 0 24.06 24"><defs><style>.cls-1,.cls-3{fill:none;}.cls-2{clip-path:url(#clip-path);}.cls-3{stroke:#435179;stroke-linecap:round;stroke-linejoin:round;stroke-width:2px;}</style><clipPath id="clip-path" transform="translate(-0.9)"><rect class="cls-1" x="0.9" width="24.07" height="24"/></clipPath></defs><g class="cls-2"><path class="cls-3" d="M15.06,14.12a3.25,3.25,0,0,1-1,.7,3,3,0,0,1-3.35-.62,3,3,0,0,1-.66-1A2.84,2.84,0,0,1,9.85,12a2.81,2.81,0,0,1,.26-1.17,3,3,0,0,1,.69-1m8.09,8.06a10.21,10.21,0,0,1-6,2.06c-7,0-11-8-11-8A18.58,18.58,0,0,1,7,6.06ZM10.82,4.24A9.35,9.35,0,0,1,12.93,4c7,0,11,8,11,8a18.68,18.68,0,0,1-2.17,3.19Z" transform="translate(-0.9)"/><path class="cls-3" d="M1.9,1,24,23" transform="translate(-0.9)"/></g></svg>