<svg width="25" height="24" viewBox="0 0 25 24" fill="none" xmlns="http://www.w3.org/2000/svg">
<g clip-path="url(#clip0)">
<path d="M15.0552 14.12C14.7798 14.4148 14.4477 14.6512 14.0787 14.8151C13.7097 14.9791 13.3114 15.0673 12.9075 15.0744C12.5036 15.0815 12.1024 15.0074 11.7278 14.8565C11.3533 14.7056 11.013 14.4811 10.7274 14.1962C10.4417 13.9113 10.2165 13.572 10.0652 13.1984C9.91394 12.8249 9.83964 12.4247 9.84677 12.0219C9.8539 11.6191 9.9423 11.2219 10.1067 10.8539C10.2711 10.4859 10.5082 10.1547 10.8037 9.88003M18.8856 17.94C17.1715 19.243 15.0844 19.9649 12.9295 20C5.9105 20 1.89966 12 1.89966 12C3.14692 9.68192 4.87684 7.65663 6.97337 6.06003L18.8856 17.94ZM10.8238 4.24002C11.514 4.0789 12.2206 3.99836 12.9295 4.00003C19.9484 4.00003 23.9593 12 23.9593 12C23.3506 13.1356 22.6247 14.2048 21.7934 15.19L10.8238 4.24002Z" stroke="#C5CEDD" stroke-width="2" stroke-linecap="round" stroke-linejoin="round"/>
<path d="M1.89966 1L23.9593 23" stroke="#C5CEDD" stroke-width="2" stroke-linecap="round" stroke-linejoin="round"/>
</g>
<defs>
<clipPath id="clip0">
<rect width="24.065" height="24" fill="white" transform="translate(0.896973)"/>
</clipPath>
</defs>
</svg>
