<svg width="16" height="16" viewBox="0 0 16 16" fill="none" xmlns="http://www.w3.org/2000/svg">
<path d="M8 1.3335C4.32 1.3335 1.33334 4.32016 1.33334 8.00016C1.33334 11.6802 4.32 14.6668 8 14.6668C11.68 14.6668 14.6667 11.6802 14.6667 8.00016C14.6667 4.32016 11.68 1.3335 8 1.3335ZM8 11.3335C7.63334 11.3335 7.33334 11.0335 7.33334 10.6668V8.00016C7.33334 7.6335 7.63334 7.3335 8 7.3335C8.36667 7.3335 8.66667 7.6335 8.66667 8.00016V10.6668C8.66667 11.0335 8.36667 11.3335 8 11.3335ZM8.66667 6.00016H7.33334V4.66683H8.66667V6.00016Z" fill="#AEAEAE"/>
</svg>
