<svg width="16" height="16" viewBox="0 0 16 16" fill="none" xmlns="http://www.w3.org/2000/svg">
<path d="M12.9733 6.66667C12.9076 6.76385 12.8686 6.87668 12.8604 6.99373C12.8522 7.11079 12.8751 7.22794 12.9266 7.33334C13.0921 7.71951 13.2086 8.12489 13.2733 8.54C13.4449 9.61343 13.2844 10.7137 12.8133 11.6933C12.7561 11.8008 12.6706 11.8905 12.566 11.9528C12.4614 12.0151 12.3417 12.0476 12.22 12.0467H3.78665C3.66423 12.0469 3.5441 12.0135 3.43944 11.95C3.33478 11.8865 3.24963 11.7954 3.19332 11.6867C2.76657 10.821 2.58274 9.85567 2.66144 8.89371C2.74013 7.93175 3.0784 7.00917 3.64017 6.22433C4.20194 5.43949 4.96617 4.82181 5.85137 4.43713C6.73657 4.05245 7.70958 3.9152 8.66665 4.04C9.1509 4.09692 9.62457 4.22263 10.0733 4.41334C10.1787 4.46492 10.2959 4.48777 10.4129 4.47957C10.53 4.47138 10.6428 4.43243 10.74 4.36667C10.8412 4.29996 10.9224 4.20691 10.9747 4.09752C11.027 3.98813 11.0485 3.86655 11.0368 3.74586C11.0251 3.62517 10.9808 3.50995 10.9085 3.41259C10.8362 3.31523 10.7388 3.23943 10.6266 3.19334C9.33878 2.64111 7.90965 2.50873 6.54225 2.815C5.17486 3.12127 3.93874 3.85063 3.00949 4.89946C2.08023 5.94829 1.50508 7.26326 1.36575 8.65759C1.22641 10.0519 1.52998 11.4547 2.23332 12.6667C2.34966 12.8682 2.51671 13.0357 2.71787 13.1527C2.91903 13.2697 3.1473 13.3319 3.37998 13.3333H12.6133C12.8483 13.3343 13.0793 13.2731 13.283 13.156C13.4867 13.039 13.6558 12.8701 13.7733 12.6667C14.2882 11.7743 14.5893 10.7747 14.6529 9.74641C14.7166 8.7181 14.541 7.68904 14.14 6.74C14.0892 6.63184 14.0103 6.53932 13.9115 6.47212C13.8127 6.40492 13.6976 6.36551 13.5784 6.35801C13.4591 6.35051 13.34 6.37521 13.2336 6.42951C13.1271 6.48381 13.0372 6.56572 12.9733 6.66667Z" fill="#9A9A9A"/>
<path d="M7.05999 8.39333C6.8098 8.64352 6.66925 8.98284 6.66925 9.33666C6.66925 9.51185 6.70376 9.68533 6.7708 9.84719C6.83784 10.009 6.93611 10.1561 7.05999 10.28C7.18387 10.4039 7.33094 10.5021 7.4928 10.5692C7.65465 10.6362 7.82813 10.6707 8.00333 10.6707C8.35714 10.6707 8.69647 10.5302 8.94666 10.28L12.72 4.62L7.05999 8.39333Z" fill="#9A9A9A"/>
</svg>
