<svg width="16" height="16" viewBox="0 0 16 16" fill="none" xmlns="http://www.w3.org/2000/svg">
<path d="M2.66665 13.3333H13.3333C14.0666 13.3333 14.6666 12.7333 14.6666 12C14.6666 11.2667 14.0666 10.6667 13.3333 10.6667H2.66665C1.93331 10.6667 1.33331 11.2667 1.33331 12C1.33331 12.7333 1.93331 13.3333 2.66665 13.3333ZM2.66665 11.3333H3.99998V12.6667H2.66665V11.3333ZM1.33331 3.99999C1.33331 4.73332 1.93331 5.33332 2.66665 5.33332H13.3333C14.0666 5.33332 14.6666 4.73332 14.6666 3.99999C14.6666 3.26666 14.0666 2.66666 13.3333 2.66666H2.66665C1.93331 2.66666 1.33331 3.26666 1.33331 3.99999ZM3.99998 4.66666H2.66665V3.33332H3.99998V4.66666ZM2.66665 9.33332H13.3333C14.0666 9.33332 14.6666 8.73332 14.6666 7.99999C14.6666 7.26666 14.0666 6.66666 13.3333 6.66666H2.66665C1.93331 6.66666 1.33331 7.26666 1.33331 7.99999C1.33331 8.73332 1.93331 9.33332 2.66665 9.33332ZM2.66665 7.33332H3.99998V8.66666H2.66665V7.33332Z" fill="#9A9A9A"/>
</svg>
