<svg width="16" height="16" viewBox="0 0 16 16" fill="none" xmlns="http://www.w3.org/2000/svg">
<path d="M12 8.66667H8.62665C8.39998 10.7333 7.11998 12.48 5.33332 13.3667C5.31332 14.5733 4.22665 15.52 2.96665 15.3C2.16665 15.16 1.50665 14.5 1.36665 13.7C1.13998 12.4333 2.10665 11.3333 3.33332 11.3333C3.96665 11.3333 4.51998 11.6333 4.88665 12.0933C6.15332 11.4067 7.05998 10.1533 7.27332 8.66667H5.20665C4.88665 9.56001 3.96665 10.16 2.92665 9.96C2.13998 9.80667 1.50665 9.16001 1.35998 8.37334C1.13332 7.10667 2.10665 6.00001 3.33332 6.00001C4.19998 6.00001 4.93332 6.56001 5.21332 7.33334H7.27998C7.06665 5.84667 6.15332 4.60001 4.88665 3.90667C4.45998 4.44001 3.77332 4.76001 3.01332 4.64001C2.19332 4.51334 1.50665 3.84667 1.36665 3.02667C1.14665 1.76667 2.11332 0.666672 3.33332 0.666672C4.42665 0.666672 5.30665 1.54001 5.32665 2.63334C7.11332 3.52001 8.39332 5.26667 8.61998 7.33334H12V6.14001C12 5.84001 12.36 5.69334 12.5666 5.90667L14.4266 7.76667C14.56 7.9 14.56 8.10667 14.4266 8.24001L12.5666 10.1C12.36 10.3067 12 10.16 12 9.86001V8.66667Z" fill="#9A9A9A"/>
</svg>
