<svg fill="#CBD0D0" xmlns="http://www.w3.org/2000/svg"  viewBox="-5 -5 55 55" width="50px" height="50px"><path d="M 23.84375 0 C 23.589844 0.0507813 23.367188 0.195313 23.21875 0.40625 L 16.125 10.125 C 15.816406 10.566406 15.910156 11.175781 16.34375 11.5 L 26.0625 18.5625 C 26.082031 18.585938 26.101563 18.605469 26.125 18.625 C 26.570313 18.882813 27.136719 18.761719 27.4375 18.34375 L 34.53125 8.65625 C 34.691406 8.441406 34.757813 8.171875 34.714844 7.90625 C 34.675781 7.644531 34.53125 7.40625 34.3125 7.25 L 24.59375 0.1875 C 24.402344 0.0507813 24.171875 -0.015625 23.9375 0 C 23.90625 0 23.875 0 23.84375 0 Z M 36.8125 0 C 36.335938 0.0898438 35.992188 0.511719 36 1 L 36 13 C 36 13.550781 36.449219 14 37 14 L 49 14 C 49.550781 14 50 13.550781 50 13 L 50 1 C 50 0.449219 49.550781 0 49 0 L 37 0 C 36.96875 0 36.9375 0 36.90625 0 C 36.875 0 36.84375 0 36.8125 0 Z M 38 2 L 48 2 L 48 12 L 38 12 Z M 24.25 2.40625 L 32.3125 8.28125 L 26.4375 16.375 L 18.34375 10.46875 Z M 0.8125 12 C 0.335938 12.089844 -0.0078125 12.511719 0 13 L 0 24.90625 C 0 24.9375 0 24.96875 0 25 C 0 25.03125 0 25.0625 0 25.09375 L 0 36.90625 C 0 36.9375 0 36.96875 0 37 C 0 37.03125 0 37.0625 0 37.09375 L 0 49 C 0 49.550781 0.449219 50 1 50 L 37 50 C 37.550781 50 38 49.550781 38 49 L 38 37 C 38 36.449219 37.550781 36 37 36 L 26 36 L 26 25 C 26 24.449219 25.550781 24 25 24 L 14 24 L 14 13 C 14 12.449219 13.550781 12 13 12 L 1 12 C 0.96875 12 0.9375 12 0.90625 12 C 0.875 12 0.84375 12 0.8125 12 Z M 2 14 L 12 14 L 12 24 L 2 24 Z M 43.625 15.4375 C 43.570313 15.445313 43.519531 15.453125 43.46875 15.46875 L 32.09375 19.28125 C 31.839844 19.367188 31.628906 19.550781 31.511719 19.789063 C 31.394531 20.03125 31.378906 20.308594 31.46875 20.5625 L 35.25 31.9375 C 35.257813 31.957031 35.269531 31.980469 35.28125 32 C 35.484375 32.488281 36.03125 32.734375 36.53125 32.5625 L 47.90625 28.75 C 48.417969 28.574219 48.695313 28.015625 48.53125 27.5 L 44.71875 16.125 C 44.570313 15.660156 44.109375 15.367188 43.625 15.4375 Z M 43.15625 17.6875 L 46.3125 27.1875 L 36.84375 30.34375 L 33.6875 20.875 Z M 2 26 L 12 26 L 12 36 L 2 36 Z M 14 26 L 24 26 L 24 36 L 14 36 Z M 2 38 L 12 38 L 12 48 L 2 48 Z M 14 38 L 24 38 L 24 48 L 14 48 Z M 26 38 L 36 38 L 36 48 L 26 48 Z"/></svg>