<svg width="20" height="20" viewBox="0 0 20 20" fill="none" xmlns="http://www.w3.org/2000/svg">
<path d="M9.99998 6.66683C10.9166 6.66683 11.6666 5.91683 11.6666 5.00016C11.6666 4.0835 10.9166 3.3335 9.99998 3.3335C9.08331 3.3335 8.33331 4.0835 8.33331 5.00016C8.33331 5.91683 9.08331 6.66683 9.99998 6.66683ZM9.99998 8.3335C9.08331 8.3335 8.33331 9.0835 8.33331 10.0002C8.33331 10.9168 9.08331 11.6668 9.99998 11.6668C10.9166 11.6668 11.6666 10.9168 11.6666 10.0002C11.6666 9.0835 10.9166 8.3335 9.99998 8.3335ZM9.99998 13.3335C9.08331 13.3335 8.33331 14.0835 8.33331 15.0002C8.33331 15.9168 9.08331 16.6668 9.99998 16.6668C10.9166 16.6668 11.6666 15.9168 11.6666 15.0002C11.6666 14.0835 10.9166 13.3335 9.99998 13.3335Z" fill="#292D3F"/>
</svg>
