<svg width="16" height="16" viewBox="0 0 16 16" fill="none" xmlns="http://www.w3.org/2000/svg">
<path d="M8.84 1.99989C5.44667 1.90655 2.66667 4.63322 2.66667 7.99989H1.47333C1.17333 7.99989 1.02667 8.35989 1.24 8.56655L3.1 10.4332C3.23333 10.5666 3.44 10.5666 3.57333 10.4332L5.43333 8.56655C5.64 8.35989 5.49333 7.99989 5.19333 7.99989H4C4 5.39989 6.12 3.29989 8.73333 3.33322C11.2133 3.36655 13.3 5.45322 13.3333 7.93322C13.3667 10.5399 11.2667 12.6666 8.66667 12.6666C7.59333 12.6666 6.6 12.2999 5.81333 11.6799C5.54667 11.4732 5.17333 11.4932 4.93333 11.7332C4.65333 12.0132 4.67333 12.4866 4.98667 12.7266C6 13.5266 7.27333 13.9999 8.66667 13.9999C12.0333 13.9999 14.76 11.2199 14.6667 7.82655C14.58 4.69989 11.9667 2.08655 8.84 1.99989ZM8.5 5.33322C8.22667 5.33322 8 5.55989 8 5.83322V8.28655C8 8.51989 8.12667 8.73989 8.32667 8.85989L10.4067 10.0932C10.6467 10.2332 10.9533 10.1532 11.0933 9.91989C11.2333 9.67989 11.1533 9.37322 10.92 9.23322L9 8.09322V5.82655C9 5.55989 8.77333 5.33322 8.5 5.33322Z" fill="#292D3F"/>
</svg>
