<svg width="16" height="16" viewBox="0 0 16 16" fill="none" xmlns="http://www.w3.org/2000/svg">
<path d="M12.9533 8.6535C12.98 8.44016 13 8.22683 13 8.00016C13 7.7735 12.98 7.56016 12.9533 7.34683L14.36 6.24683C14.4867 6.14683 14.52 5.96683 14.44 5.82016L13.1067 3.5135C13.0267 3.36683 12.8467 3.3135 12.7 3.36683L11.04 4.0335C10.6933 3.76683 10.32 3.54683 9.91335 3.38016L9.66002 1.6135C9.64002 1.4535 9.50002 1.3335 9.33335 1.3335H6.66668C6.50002 1.3335 6.36002 1.4535 6.34002 1.6135L6.08668 3.38016C5.68002 3.54683 5.30668 3.7735 4.96002 4.0335L3.30001 3.36683C3.14668 3.30683 2.97335 3.36683 2.89335 3.5135L1.56001 5.82016C1.47335 5.96683 1.51335 6.14683 1.64002 6.24683L3.04668 7.34683C3.02002 7.56016 3.00002 7.78016 3.00002 8.00016C3.00002 8.22016 3.02002 8.44016 3.04668 8.6535L1.64002 9.7535C1.51335 9.8535 1.48001 10.0335 1.56001 10.1802L2.89335 12.4868C2.97335 12.6335 3.15335 12.6868 3.30001 12.6335L4.96002 11.9668C5.30668 12.2335 5.68002 12.4535 6.08668 12.6202L6.34002 14.3868C6.36002 14.5468 6.50002 14.6668 6.66668 14.6668H9.33335C9.50002 14.6668 9.64002 14.5468 9.66002 14.3868L9.91335 12.6202C10.32 12.4535 10.6933 12.2268 11.04 11.9668L12.7 12.6335C12.8533 12.6935 13.0267 12.6335 13.1067 12.4868L14.44 10.1802C14.52 10.0335 14.4867 9.8535 14.36 9.7535L12.9533 8.6535ZM8.00002 10.3335C6.71335 10.3335 5.66668 9.28683 5.66668 8.00016C5.66668 6.7135 6.71335 5.66683 8.00002 5.66683C9.28668 5.66683 10.3333 6.7135 10.3333 8.00016C10.3333 9.28683 9.28668 10.3335 8.00002 10.3335Z" fill="#AEAEAE"/>
</svg>
