<svg width="16" height="16" viewBox="0 0 16 16" fill="none" xmlns="http://www.w3.org/2000/svg">
<path d="M12.4333 5.5665L10.5733 7.4265C10.36 7.63984 10.5067 7.99984 10.8067 7.99984H12C12 10.2065 10.2067 11.9998 8 11.9998C7.47333 11.9998 6.96 11.8998 6.5 11.7065C6.26 11.6065 5.98667 11.6798 5.80667 11.8598C5.46667 12.1998 5.58667 12.7732 6.03333 12.9532C6.64 13.1998 7.30667 13.3332 8 13.3332C10.9467 13.3332 13.3333 10.9465 13.3333 7.99984H14.5267C14.8267 7.99984 14.9733 7.63984 14.76 7.43317L12.9 5.57317C12.7733 5.43984 12.56 5.43984 12.4333 5.5665ZM4 7.99984C4 5.79317 5.79333 3.99984 8 3.99984C8.52667 3.99984 9.04 4.09984 9.5 4.29317C9.74 4.39317 10.0133 4.31984 10.1933 4.13984C10.5333 3.79984 10.4133 3.2265 9.96667 3.0465C9.36 2.79984 8.69333 2.6665 8 2.6665C5.05333 2.6665 2.66667 5.05317 2.66667 7.99984H1.47333C1.17333 7.99984 1.02667 8.35984 1.24 8.5665L3.1 10.4265C3.23333 10.5598 3.44 10.5598 3.57333 10.4265L5.43333 8.5665C5.64 8.35984 5.49333 7.99984 5.19333 7.99984H4Z" fill="#AEAEAE"/>
</svg>
